<?xml version="1.0" encoding="UTF-8"?> <svg xmlns="http://www.w3.org/2000/svg" width="284" height="284" viewBox="0 0 284 284" fill="none"><rect width="284" height="284" rx="20" fill="#F5F5F7"></rect><path d="M124.419 147.329C124.419 148.211 124.158 149.073 123.668 149.806C123.178 150.54 122.481 151.111 121.666 151.449C120.851 151.786 119.955 151.875 119.09 151.703C118.224 151.531 117.43 151.106 116.806 150.482C116.183 149.858 115.758 149.064 115.586 148.199C115.414 147.334 115.502 146.437 115.839 145.622C116.177 144.807 116.749 144.111 117.482 143.621C118.215 143.131 119.078 142.869 119.96 142.869C121.141 142.873 122.273 143.344 123.109 144.18C123.944 145.015 124.415 146.147 124.419 147.329V147.329Z" fill="#1F00B4"></path><path d="M143.681 147.329C143.681 148.211 143.419 149.073 142.929 149.806C142.439 150.54 141.743 151.111 140.928 151.449C140.113 151.786 139.216 151.875 138.351 151.703C137.486 151.531 136.692 151.106 136.068 150.482C135.444 149.858 135.019 149.064 134.847 148.199C134.675 147.334 134.764 146.437 135.101 145.622C135.439 144.807 136.01 144.111 136.744 143.621C137.477 143.131 138.339 142.869 139.221 142.869C140.403 142.873 141.535 143.344 142.37 144.18C143.206 145.015 143.677 146.147 143.681 147.329V147.329Z" fill="#1F00B4"></path><path d="M162.947 147.329C162.947 148.211 162.685 149.073 162.195 149.806C161.705 150.54 161.008 151.111 160.194 151.449C159.379 151.786 158.482 151.875 157.617 151.703C156.752 151.531 155.957 151.106 155.334 150.482C154.71 149.858 154.285 149.064 154.113 148.199C153.941 147.334 154.029 146.437 154.367 145.622C154.704 144.807 155.276 144.111 156.009 143.621C156.743 143.131 157.605 142.869 158.487 142.869C159.668 142.873 160.801 143.344 161.636 144.18C162.471 145.015 162.943 146.147 162.947 147.329V147.329Z" fill="#1F00B4"></path><path d="M105.896 160.352C105.894 161.28 105.526 162.169 104.87 162.825C104.214 163.481 103.326 163.85 102.398 163.852H92.5119C91.5843 163.851 90.695 163.482 90.0393 162.826C89.3836 162.169 89.015 161.28 89.0143 160.352V129.048H84.5001C83.5718 129.048 82.6815 128.679 82.0251 128.023C81.3688 127.366 81 126.476 81 125.548C81 124.62 81.3688 123.729 82.0251 123.073C82.6815 122.417 83.5718 122.048 84.5001 122.048H89.0143V90.5001C89.015 89.5724 89.3836 88.6829 90.0393 88.0268C90.695 87.3706 91.5843 87.0013 92.5119 87H102.398C103.326 87 104.217 87.3688 104.873 88.0251C105.529 88.6815 105.898 89.5718 105.898 90.5001C105.898 91.4283 105.529 92.3186 104.873 92.975C104.217 93.6314 103.326 94.0001 102.398 94.0001H96.0145V156.852H102.401C103.328 156.854 104.216 157.224 104.872 157.88C105.527 158.536 105.895 159.425 105.896 160.352Z" fill="#1F00B4"></path><path d="M203.999 125.304C203.998 126.231 203.629 127.12 202.974 127.776C202.318 128.432 201.429 128.802 200.502 128.804H195.987V160.352C195.987 161.279 195.618 162.169 194.962 162.825C194.307 163.481 193.417 163.85 192.49 163.852H182.604C181.675 163.852 180.785 163.483 180.129 162.827C179.472 162.17 179.104 161.28 179.104 160.352C179.104 159.423 179.472 158.533 180.129 157.877C180.785 157.22 181.675 156.852 182.604 156.852H188.985V93.9996H182.604C181.912 93.9999 181.236 93.7956 180.661 93.4123C180.086 93.0289 179.637 92.4838 179.371 91.8457C179.105 91.2075 179.034 90.5049 179.167 89.8265C179.3 89.148 179.631 88.5241 180.118 88.0335C180.443 87.7061 180.831 87.4466 181.258 87.2704C181.684 87.0941 182.142 87.0045 182.604 87.0069H192.49C193.417 87.0082 194.307 87.3775 194.962 88.0336C195.618 88.6898 195.987 89.5793 195.987 90.5069V121.804H200.502C201.429 121.806 202.318 122.175 202.974 122.831C203.629 123.487 203.998 124.376 203.999 125.304V125.304Z" fill="#1F00B4"></path><path d="M122.303 194.133L120.894 197.613H116.715L124.508 179.67H128.687L136.351 197.613H132.02L130.608 194.133H122.303ZM126.482 183.903L123.638 190.864H129.303L126.482 183.903Z" fill="#1F00B4"></path><path d="M145.834 179.675C150.398 179.675 153.011 181.929 153.011 185.904C153.011 190.083 150.398 192.492 145.834 192.492H142.272V197.618H138.223V179.675H145.834ZM142.272 189.109H145.63C147.885 189.109 149.168 188.082 149.168 186.031C149.168 184.042 147.885 183.033 145.63 183.033H142.272V189.109Z" fill="#1F00B4"></path><path d="M155.602 197.618V179.675H159.651V197.618H155.602Z" fill="#1F00B4"></path></svg> 